<svg version="1.1" viewBox="0.0 0.0 930.501312335958 479.501312335958" fill="none" stroke="none" stroke-linecap="square" stroke-miterlimit="10" xmlns:xlink="http://www.w3.org/1999/xlink" xmlns="http://www.w3.org/2000/svg"><clipPath id="p.0"><path d="m0 0l930.50134 0l0 479.5013l-930.50134 0l0 -479.5013z" clip-rule="nonzero"/></clipPath><g clip-path="url(#p.0)"><path fill="#000000" fill-opacity="0.0" d="m0 0l930.50134 0l0 479.5013l-930.50134 0z" fill-rule="evenodd"/><path fill="#582c01" d="m11.99663 239.996l0 0c0 -125.92093 102.07908 -228.0 228.0 -228.0l451.2126 0l0 0c60.46936 0 118.462036 24.02136 161.22034 66.779655c42.7583 42.758293 66.77966 100.750984 66.77966 161.22034l0 0l0 0c0 125.92093 -102.0791 228.0 -228.0 228.0l-451.2126 0l0 0c-125.92092 0 -228.0 -102.07907 -228.0 -228.0z" fill-rule="evenodd"/><path stroke="#582c01" stroke-width="24.0" stroke-linejoin="round" stroke-linecap="butt" d="m11.99663 239.996l0 0c0 -125.92093 102.07908 -228.0 228.0 -228.0l451.2126 0l0 0c60.46936 0 118.462036 24.02136 161.22034 66.779655c42.7583 42.758293 66.77966 100.750984 66.77966 161.22034l0 0l0 0c0 125.92093 -102.0791 228.0 -228.0 228.0l-451.2126 0l0 0c-125.92092 0 -228.0 -102.07907 -228.0 -228.0z" fill-rule="evenodd"/><path fill="#663300" d="m43.775528 244.31621l0 0c0 -111.12665 90.08595 -201.2126 201.2126 -201.2126l441.22836 0l0 0c53.36487 0 104.54407 21.199123 142.27875 58.933804c37.73468 37.73468 58.933838 88.913895 58.933838 142.2788l0 0l0 0c0 111.12666 -90.08594 201.2126 -201.21259 201.2126l-441.22836 0c-111.12665 0 -201.2126 -90.08594 -201.2126 -201.2126z" fill-rule="evenodd"/><path stroke="#663300" stroke-width="24.0" stroke-linejoin="round" stroke-linecap="butt" d="m43.775528 244.31621l0 0c0 -111.12665 90.08595 -201.2126 201.2126 -201.2126l441.22836 0l0 0c53.36487 0 104.54407 21.199123 142.27875 58.933804c37.73468 37.73468 58.933838 88.913895 58.933838 142.2788l0 0l0 0c0 111.12666 -90.08594 201.2126 -201.21259 201.2126l-441.22836 0c-111.12665 0 -201.2126 -90.08594 -201.2126 -201.2126z" fill-rule="evenodd"/><path fill="#6aa84f" d="m99.11411 239.996l0 0c0 -82.294785 66.7131 -149.00787 149.00787 -149.00787l434.96066 0l0 0c39.51935 0 77.420044 15.6989975 105.36444 43.643387c27.944397 27.944397 43.643433 65.84514 43.643433 105.36449l0 0l0 0c0 82.29477 -66.713135 149.00787 -149.00787 149.00787l-434.96066 0c-82.29477 0 -149.00787 -66.713104 -149.00787 -149.00787z" fill-rule="evenodd"/></g></svg>